<?xml version="1.0" encoding="UTF-8" standalone="no"?>
<!DOCTYPE svg PUBLIC "-//W3C//DTD SVG 1.1//EN"
 "http://www.w3.org/Graphics/SVG/1.1/DTD/svg11.dtd">
<!-- Generated by graphviz version 2.38.0 (20140413.2041)
 -->
<!-- Title: Authorization Workflow Pages: 1 -->
<svg width="616pt" height="314pt"
 viewBox="0.00 0.00 616.09 314.00" xmlns="http://www.w3.org/2000/svg" xmlns:xlink="http://www.w3.org/1999/xlink">
<g id="graph0" class="graph" transform="scale(1 1) rotate(0) translate(4 310)">
<title>Authorization Workflow</title>
<polygon fill="white" stroke="none" points="-4,4 -4,-310 612.093,-310 612.093,4 -4,4"/>
<!-- Registration Form -->
<g id="node1" class="node"><title>Registration Form</title>
<polygon fill="none" stroke="black" points="131.695,-252 13.1491,-252 13.1491,-216 131.695,-216 131.695,-252"/>
<text text-anchor="middle" x="72.4219" y="-229.8" font-family="Times,serif" font-size="14.00">Registration Form</text>
</g>
<!-- Checkit -->
<g id="node2" class="node"><title>Checkit</title>
<text text-anchor="middle" x="283.511" y="-283.8" font-family="Times,serif" font-size="14.00">Checkit</text>
</g>
<!-- Registration Form&#45;&gt;Checkit -->
<g id="edge1" class="edge"><title>Registration Form&#45;&gt;Checkit</title>
<path fill="none" stroke="black" d="M131.665,-249.042C167.538,-258.307 212.525,-269.925 243.996,-278.053"/>
<polygon fill="black" stroke="black" points="243.153,-281.45 253.711,-280.562 244.904,-274.672 243.153,-281.45"/>
</g>
<!-- Click Verification Link -->
<g id="node6" class="node"><title>Click Verification Link</title>
<polygon fill="none" stroke="black" points="144.766,-144 0.0780408,-144 0.0780408,-108 144.766,-108 144.766,-144"/>
<text text-anchor="middle" x="72.4219" y="-121.8" font-family="Times,serif" font-size="14.00">Click Verification Link</text>
</g>
<!-- Registration Form&#45;&gt;Click Verification Link -->
<!-- Check Duplicate Mail&#45;Address -->
<g id="node3" class="node"><title>Check Duplicate Mail&#45;Address</title>
<text text-anchor="middle" x="283.511" y="-229.8" font-family="Times,serif" font-size="14.00">Check Duplicate Mail&#45;Address</text>
</g>
<!-- Checkit&#45;&gt;Check Duplicate Mail&#45;Address -->
<g id="edge2" class="edge"><title>Checkit&#45;&gt;Check Duplicate Mail&#45;Address</title>
<path fill="none" stroke="black" d="M283.511,-269.79C283.511,-267.308 283.511,-264.826 283.511,-262.344"/>
<polygon fill="black" stroke="black" points="287.011,-262.141 283.511,-252.141 280.011,-262.141 287.011,-262.141"/>
</g>
<!-- Create New User Record -->
<g id="node4" class="node"><title>Create New User Record</title>
<text text-anchor="middle" x="515.136" y="-202.8" font-family="Times,serif" font-size="14.00">Create New User Record</text>
</g>
<!-- Check Duplicate Mail&#45;Address&#45;&gt;Create New User Record -->
<g id="edge3" class="edge"><title>Check Duplicate Mail&#45;Address&#45;&gt;Create New User Record</title>
<path fill="none" stroke="black" d="M378.902,-222.901C394.732,-221.04 411.097,-219.116 426.74,-217.276"/>
<polygon fill="black" stroke="black" points="427.38,-220.725 436.903,-216.081 426.563,-213.773 427.38,-220.725"/>
</g>
<!-- Send Verification Mail -->
<g id="node5" class="node"><title>Send Verification Mail</title>
<text text-anchor="middle" x="283.511" y="-175.8" font-family="Times,serif" font-size="14.00">Send Verification Mail</text>
</g>
<!-- Create New User Record&#45;&gt;Send Verification Mail -->
<g id="edge4" class="edge"><title>Create New User Record&#45;&gt;Send Verification Mail</title>
<path fill="none" stroke="black" d="M436.82,-197.909C413.662,-195.186 388.217,-192.194 364.868,-189.449"/>
<polygon fill="black" stroke="black" points="364.994,-185.939 354.654,-188.248 364.177,-192.892 364.994,-185.939"/>
</g>
<!-- Update User Record -->
<g id="node7" class="node"><title>Update User Record</title>
<text text-anchor="middle" x="283.511" y="-121.8" font-family="Times,serif" font-size="14.00">Update User Record</text>
</g>
<!-- Click Verification Link&#45;&gt;Update User Record -->
<g id="edge5" class="edge"><title>Click Verification Link&#45;&gt;Update User Record</title>
<path fill="none" stroke="black" d="M144.794,-126C165.136,-126 187.348,-126 207.879,-126"/>
<polygon fill="black" stroke="black" points="208.124,-129.5 218.124,-126 208.124,-122.5 208.124,-129.5"/>
</g>
<!-- Login Form -->
<g id="node8" class="node"><title>Login Form</title>
<polygon fill="none" stroke="black" points="114.202,-90 30.6421,-90 30.6421,-54 114.202,-54 114.202,-90"/>
<text text-anchor="middle" x="72.4219" y="-67.8" font-family="Times,serif" font-size="14.00">Login Form</text>
</g>
<!-- Click Verification Link&#45;&gt;Login Form -->
<!-- Check Existence of Mail&#45;Address -->
<g id="node9" class="node"><title>Check Existence of Mail&#45;Address</title>
<text text-anchor="middle" x="283.511" y="-67.8" font-family="Times,serif" font-size="14.00">Check Existence of Mail&#45;Address</text>
</g>
<!-- Login Form&#45;&gt;Check Existence of Mail&#45;Address -->
<g id="edge6" class="edge"><title>Login Form&#45;&gt;Check Existence of Mail&#45;Address</title>
<path fill="none" stroke="black" d="M114.233,-72C130.601,-72 150.341,-72 170.453,-72"/>
<polygon fill="black" stroke="black" points="170.664,-75.5001 180.664,-72 170.664,-68.5001 170.664,-75.5001"/>
</g>
<!-- Check for Matching Password -->
<g id="node10" class="node"><title>Check for Matching Password</title>
<text text-anchor="middle" x="515.136" y="-40.8" font-family="Times,serif" font-size="14.00">Check for Matching Password</text>
</g>
<!-- Check Existence of Mail&#45;Address&#45;&gt;Check for Matching Password -->
<g id="edge7" class="edge"><title>Check Existence of Mail&#45;Address&#45;&gt;Check for Matching Password</title>
<path fill="none" stroke="black" d="M386.231,-60.0395C394.767,-59.0358 403.401,-58.0206 411.94,-57.0165"/>
<polygon fill="black" stroke="black" points="412.387,-60.4881 421.91,-55.8442 411.57,-53.536 412.387,-60.4881"/>
</g>
<!-- Return Authorization Token -->
<g id="node11" class="node"><title>Return Authorization Token</title>
<text text-anchor="middle" x="283.511" y="-13.8" font-family="Times,serif" font-size="14.00">Return Authorization Token</text>
</g>
<!-- Check for Matching Password&#45;&gt;Return Authorization Token -->
<g id="edge8" class="edge"><title>Check for Matching Password&#45;&gt;Return Authorization Token</title>
<path fill="none" stroke="black" d="M422.159,-34.185C408.22,-32.546 393.813,-30.852 379.805,-29.205"/>
<polygon fill="black" stroke="black" points="380.029,-25.7073 369.689,-28.0154 379.211,-32.6594 380.029,-25.7073"/>
</g>
</g>
</svg>
