<?xml version="1.0" encoding="UTF-8" standalone="no"?>
<!DOCTYPE svg PUBLIC "-//W3C//DTD SVG 1.1//EN"
 "http://www.w3.org/Graphics/SVG/1.1/DTD/svg11.dtd">
<!-- Generated by graphviz version 2.38.0 (20140413.2041)
 -->
<!-- Title: Code Struktur Pages: 1 -->
<svg width="590pt" height="357pt"
 viewBox="0.00 0.00 590.18 357.00" xmlns="http://www.w3.org/2000/svg" xmlns:xlink="http://www.w3.org/1999/xlink">
<g id="graph0" class="graph" transform="scale(1 1) rotate(0) translate(4 353)">
<title>Code Struktur</title>
<polygon fill="white" stroke="none" points="-4,4 -4,-353 586.176,-353 586.176,4 -4,4"/>
<g id="clust8" class="cluster"><title>clusterService</title>
<polygon fill="lightgrey" stroke="lightgrey" points="479.383,-8 479.383,-190 572.814,-190 572.814,-8 479.383,-8"/>
<text text-anchor="middle" x="543.824" y="-174.8" font-family="Times,serif" font-size="14.00">Service</text>
</g>
<!-- db -->
<g id="node1" class="node"><title>db</title>
<polygon fill="none" stroke="black" points="157.773,-173 11.8539,-173 11.8539,-137 157.773,-137 157.773,-173"/>
<text text-anchor="middle" x="84.8136" y="-150.8" font-family="Times,serif" font-size="14.00">Database configuration</text>
</g>
<!-- server -->
<g id="node2" class="node"><title>server</title>
<polygon fill="none" stroke="black" points="111.814,-227 57.8136,-227 57.8136,-191 111.814,-191 111.814,-227"/>
<text text-anchor="middle" x="84.8136" y="-204.8" font-family="Times,serif" font-size="14.00">Server</text>
</g>
<!-- helpers -->
<g id="node6" class="node"><title>helpers</title>
<polygon fill="none" stroke="black" points="283.353,-241 224.274,-241 224.274,-205 283.353,-205 283.353,-241"/>
<text text-anchor="middle" x="253.814" y="-218.8" font-family="Times,serif" font-size="14.00">Helpers</text>
</g>
<!-- server&#45;&gt;helpers -->
<g id="edge3" class="edge"><title>server&#45;&gt;helpers</title>
<path fill="none" stroke="black" d="M111.907,-211.188C139.27,-213.481 182.575,-217.112 213.959,-219.743"/>
<polygon fill="black" stroke="black" points="213.848,-223.246 224.105,-220.593 214.433,-216.27 213.848,-223.246"/>
</g>
<!-- services -->
<g id="node7" class="node"><title>services</title>
<polygon fill="none" stroke="black" points="285.743,-187 221.884,-187 221.884,-151 285.743,-151 285.743,-187"/>
<text text-anchor="middle" x="253.814" y="-164.8" font-family="Times,serif" font-size="14.00">Services</text>
</g>
<!-- server&#45;&gt;services -->
<g id="edge4" class="edge"><title>server&#45;&gt;services</title>
<path fill="none" stroke="black" d="M111.907,-202.75C138.693,-196.334 180.756,-186.259 211.958,-178.786"/>
<polygon fill="black" stroke="black" points="213.176,-182.093 222.086,-176.36 211.546,-175.286 213.176,-182.093"/>
</g>
<!-- import -->
<g id="node3" class="node"><title>import</title>
<polygon fill="none" stroke="black" points="126.573,-308 43.0544,-308 43.0544,-272 126.573,-272 126.573,-308"/>
<text text-anchor="middle" x="84.8136" y="-285.8" font-family="Times,serif" font-size="14.00">Data import</text>
</g>
<!-- apis -->
<g id="node4" class="node"><title>apis</title>
<polygon fill="none" stroke="black" points="280.814,-349 226.814,-349 226.814,-313 280.814,-313 280.814,-349"/>
<text text-anchor="middle" x="253.814" y="-326.8" font-family="Times,serif" font-size="14.00">APIs</text>
</g>
<!-- import&#45;&gt;apis -->
<g id="edge1" class="edge"><title>import&#45;&gt;apis</title>
<path fill="none" stroke="black" d="M126.666,-300.03C154.116,-306.769 189.97,-315.571 216.436,-322.069"/>
<polygon fill="black" stroke="black" points="215.891,-325.539 226.437,-324.524 217.56,-318.741 215.891,-325.539"/>
</g>
<!-- api_tests -->
<g id="node5" class="node"><title>api_tests</title>
<polygon fill="none" stroke="black" points="289.201,-295 218.426,-295 218.426,-259 289.201,-259 289.201,-295"/>
<text text-anchor="middle" x="253.814" y="-272.8" font-family="Times,serif" font-size="14.00">API Tests</text>
</g>
<!-- import&#45;&gt;api_tests -->
<g id="edge2" class="edge"><title>import&#45;&gt;api_tests</title>
<path fill="none" stroke="black" d="M126.666,-286.82C151.448,-284.891 183.081,-282.428 208.47,-280.452"/>
<polygon fill="black" stroke="black" points="208.876,-283.931 218.575,-279.665 208.333,-276.952 208.876,-283.931"/>
</g>
<!-- auth -->
<g id="node8" class="node"><title>auth</title>
<polygon fill="none" stroke="black" points="438.573,-295 345.054,-295 345.054,-259 438.573,-259 438.573,-295"/>
<text text-anchor="middle" x="391.814" y="-272.8" font-family="Times,serif" font-size="14.00">Authorization</text>
</g>
<!-- services&#45;&gt;auth -->
<g id="edge5" class="edge"><title>services&#45;&gt;auth</title>
<path fill="none" stroke="black" d="M278.608,-187.29C282.141,-190.149 285.703,-193.113 289.007,-196 315.026,-218.734 317.426,-229.092 344.934,-250 346.3,-251.038 347.709,-252.068 349.148,-253.084"/>
<polygon fill="black" stroke="black" points="347.358,-256.098 357.619,-258.738 351.244,-250.275 347.358,-256.098"/>
</g>
<!-- users -->
<g id="node9" class="node"><title>users</title>
<polygon fill="none" stroke="black" points="418.814,-241 364.814,-241 364.814,-205 418.814,-205 418.814,-241"/>
<text text-anchor="middle" x="391.814" y="-218.8" font-family="Times,serif" font-size="14.00">Users</text>
</g>
<!-- services&#45;&gt;users -->
<g id="edge6" class="edge"><title>services&#45;&gt;users</title>
<path fill="none" stroke="black" d="M285.674,-181.253C306.334,-189.457 333.593,-200.28 355.178,-208.851"/>
<polygon fill="black" stroke="black" points="354.066,-212.175 364.652,-212.612 356.649,-205.669 354.066,-212.175"/>
</g>
<!-- shows -->
<g id="node10" class="node"><title>shows</title>
<polygon fill="none" stroke="black" points="418.814,-187 364.814,-187 364.814,-151 418.814,-151 418.814,-187"/>
<text text-anchor="middle" x="391.814" y="-164.8" font-family="Times,serif" font-size="14.00">Shows</text>
</g>
<!-- services&#45;&gt;shows -->
<g id="edge7" class="edge"><title>services&#45;&gt;shows</title>
<path fill="none" stroke="black" d="M285.674,-169C306.148,-169 333.103,-169 354.593,-169"/>
<polygon fill="black" stroke="black" points="354.652,-172.5 364.652,-169 354.652,-165.5 354.652,-172.5"/>
</g>
<!-- episodes -->
<g id="node11" class="node"><title>episodes</title>
<polygon fill="none" stroke="black" points="424.867,-133 358.76,-133 358.76,-97 424.867,-97 424.867,-133"/>
<text text-anchor="middle" x="391.814" y="-110.8" font-family="Times,serif" font-size="14.00">Episodes</text>
</g>
<!-- services&#45;&gt;episodes -->
<g id="edge8" class="edge"><title>services&#45;&gt;episodes</title>
<path fill="none" stroke="black" d="M285.674,-156.747C304.482,-149.279 328.759,-139.639 349.245,-131.505"/>
<polygon fill="black" stroke="black" points="350.654,-134.712 358.656,-127.768 348.07,-128.206 350.654,-134.712"/>
</g>
<!-- votes -->
<g id="node12" class="node"><title>votes</title>
<polygon fill="none" stroke="black" points="418.814,-79 364.814,-79 364.814,-43 418.814,-43 418.814,-79"/>
<text text-anchor="middle" x="391.814" y="-56.8" font-family="Times,serif" font-size="14.00">Votes</text>
</g>
<!-- services&#45;&gt;votes -->
<g id="edge9" class="edge"><title>services&#45;&gt;votes</title>
<path fill="none" stroke="black" d="M272.867,-150.783C290.428,-133.557 318.286,-107.512 344.934,-88 348.374,-85.4815 352.063,-82.9941 355.801,-80.6082"/>
<polygon fill="black" stroke="black" points="357.823,-83.4734 364.515,-75.2588 354.161,-77.5078 357.823,-83.4734"/>
</g>
<!-- model.js -->
<g id="node13" class="node"><title>model.js</title>
<polygon fill="white" stroke="white" points="557.645,-160 493.982,-160 493.982,-124 557.645,-124 557.645,-160"/>
<text text-anchor="middle" x="525.814" y="-137.8" font-family="Times,serif" font-size="14.00">model.js</text>
</g>
<!-- users&#45;&gt;model.js -->
<g id="edge10" class="edge"><title>users&#45;&gt;model.js</title>
<path fill="none" stroke="black" d="M419.092,-207.706C425.524,-203.916 432.374,-199.839 438.693,-196 449.134,-189.656 460.225,-182.795 470.852,-176.159"/>
<polygon fill="black" stroke="black" points="473.026,-178.928 479.645,-170.655 469.311,-172.994 473.026,-178.928"/>
</g>
<!-- shows&#45;&gt;model.js -->
<g id="edge11" class="edge"><title>shows&#45;&gt;model.js</title>
<path fill="none" stroke="black" d="M418.893,-163.666C433.365,-160.705 451.939,-156.906 469.48,-153.318"/>
<polygon fill="black" stroke="black" points="470.555,-156.671 479.65,-151.238 469.152,-149.813 470.555,-156.671"/>
</g>
<!-- episodes&#45;&gt;model.js -->
<g id="edge12" class="edge"><title>episodes&#45;&gt;model.js</title>
<path fill="none" stroke="black" d="M425.104,-121.605C438.51,-124.347 454.452,-127.608 469.613,-130.709"/>
<polygon fill="black" stroke="black" points="468.929,-134.142 479.428,-132.717 470.332,-127.284 468.929,-134.142"/>
</g>
<!-- votes&#45;&gt;model.js -->
<g id="edge13" class="edge"><title>votes&#45;&gt;model.js</title>
<path fill="none" stroke="black" d="M419.092,-76.2938C425.524,-80.0843 432.374,-84.1607 438.693,-88 449.134,-94.3437 460.225,-101.205 470.852,-107.841"/>
<polygon fill="black" stroke="black" points="469.311,-111.006 479.645,-113.345 473.026,-105.072 469.311,-111.006"/>
</g>
<!-- index.js -->
<g id="node14" class="node"><title>index.js</title>
<polygon fill="white" stroke="white" points="555.755,-106 495.872,-106 495.872,-70 555.755,-70 555.755,-106"/>
<text text-anchor="middle" x="525.814" y="-83.8" font-family="Times,serif" font-size="14.00">index.js</text>
</g>
<!-- tests.js -->
<g id="node15" class="node"><title>tests.js</title>
<polygon fill="white" stroke="white" points="552.814,-52 498.814,-52 498.814,-16 552.814,-16 552.814,-52"/>
<text text-anchor="middle" x="525.814" y="-29.8" font-family="Times,serif" font-size="14.00">tests.js</text>
</g>
</g>
</svg>
