<?xml version="1.0" encoding="UTF-8" standalone="no"?>
<!DOCTYPE svg PUBLIC "-//W3C//DTD SVG 1.1//EN"
 "http://www.w3.org/Graphics/SVG/1.1/DTD/svg11.dtd">
<!-- Generated by graphviz version 2.38.0 (20140413.2041)
 -->
<!-- Title: EpisodeFever Database Schema Pages: 1 -->
<svg width="514pt" height="266pt"
 viewBox="7.20 7.20 507.18 259.20" xmlns="http://www.w3.org/2000/svg" xmlns:xlink="http://www.w3.org/1999/xlink">
<g id="graph0" class="graph" transform="scale(0.538462 0.538462) rotate(0) translate(17.3714 477.371)">
<title>EpisodeFever Database Schema</title>
<polygon fill="white" stroke="none" points="-4,4 -4,-464 924.529,-464 924.529,4 -4,4"/>
<!-- User -->
<g id="node1" class="node"><title>User</title>
<polygon fill="none" stroke="black" points="92.0396,-261.5 92.0396,-459.5 207.96,-459.5 207.96,-261.5 92.0396,-261.5"/>
<text text-anchor="middle" x="150" y="-444.3" font-family="Times,serif" font-size="14.00">USER</text>
<polyline fill="none" stroke="black" points="92.0396,-437.5 207.96,-437.5 "/>
<text text-anchor="middle" x="150" y="-422.3" font-family="Times,serif" font-size="14.00">id</text>
<polyline fill="none" stroke="black" points="92.0396,-415.5 207.96,-415.5 "/>
<text text-anchor="middle" x="150" y="-400.3" font-family="Times,serif" font-size="14.00">Name</text>
<polyline fill="none" stroke="black" points="92.0396,-393.5 207.96,-393.5 "/>
<text text-anchor="middle" x="150" y="-378.3" font-family="Times,serif" font-size="14.00">EMail</text>
<polyline fill="none" stroke="black" points="92.0396,-371.5 207.96,-371.5 "/>
<text text-anchor="middle" x="150" y="-356.3" font-family="Times,serif" font-size="14.00">Password</text>
<polyline fill="none" stroke="black" points="92.0396,-349.5 207.96,-349.5 "/>
<text text-anchor="middle" x="150" y="-334.3" font-family="Times,serif" font-size="14.00">Verified</text>
<polyline fill="none" stroke="black" points="92.0396,-327.5 207.96,-327.5 "/>
<text text-anchor="middle" x="150" y="-312.3" font-family="Times,serif" font-size="14.00">Verification token</text>
<polyline fill="none" stroke="black" points="92.0396,-305.5 207.96,-305.5 "/>
<text text-anchor="middle" x="150" y="-290.3" font-family="Times,serif" font-size="14.00">Created at</text>
<polyline fill="none" stroke="black" points="92.0396,-283.5 207.96,-283.5 "/>
<text text-anchor="middle" x="150" y="-268.3" font-family="Times,serif" font-size="14.00">Updated at</text>
</g>
<!-- Show -->
<g id="node2" class="node"><title>Show</title>
<polygon fill="none" stroke="black" points="102.926,-0.5 102.926,-242.5 197.074,-242.5 197.074,-0.5 102.926,-0.5"/>
<text text-anchor="middle" x="150" y="-227.3" font-family="Times,serif" font-size="14.00">SHOW</text>
<polyline fill="none" stroke="black" points="102.926,-220.5 197.074,-220.5 "/>
<text text-anchor="middle" x="150" y="-205.3" font-family="Times,serif" font-size="14.00">id</text>
<polyline fill="none" stroke="black" points="102.926,-198.5 197.074,-198.5 "/>
<text text-anchor="middle" x="150" y="-183.3" font-family="Times,serif" font-size="14.00">Name</text>
<polyline fill="none" stroke="black" points="102.926,-176.5 197.074,-176.5 "/>
<text text-anchor="middle" x="150" y="-161.3" font-family="Times,serif" font-size="14.00">Description</text>
<polyline fill="none" stroke="black" points="102.926,-154.5 197.074,-154.5 "/>
<text text-anchor="middle" x="150" y="-139.3" font-family="Times,serif" font-size="14.00">Running?</text>
<polyline fill="none" stroke="black" points="102.926,-132.5 197.074,-132.5 "/>
<text text-anchor="middle" x="150" y="-117.3" font-family="Times,serif" font-size="14.00">TheTVDB ID</text>
<polyline fill="none" stroke="black" points="102.926,-110.5 197.074,-110.5 "/>
<text text-anchor="middle" x="150" y="-95.3" font-family="Times,serif" font-size="14.00">TVRage ID</text>
<polyline fill="none" stroke="black" points="102.926,-88.5 197.074,-88.5 "/>
<text text-anchor="middle" x="150" y="-73.3" font-family="Times,serif" font-size="14.00">Poster</text>
<polyline fill="none" stroke="black" points="102.926,-66.5 197.074,-66.5 "/>
<text text-anchor="middle" x="150" y="-51.3" font-family="Times,serif" font-size="14.00">Wallpaper</text>
<polyline fill="none" stroke="black" points="102.926,-44.5 197.074,-44.5 "/>
<text text-anchor="middle" x="150" y="-29.3" font-family="Times,serif" font-size="14.00">Created at</text>
<polyline fill="none" stroke="black" points="102.926,-22.5 197.074,-22.5 "/>
<text text-anchor="middle" x="150" y="-7.3" font-family="Times,serif" font-size="14.00">Updated at</text>
</g>
<!-- Episode -->
<g id="node3" class="node"><title>Episode</title>
<polygon fill="none" stroke="black" points="465.874,-110.5 465.874,-330.5 556.126,-330.5 556.126,-110.5 465.874,-110.5"/>
<text text-anchor="middle" x="511" y="-315.3" font-family="Times,serif" font-size="14.00">EPISODE</text>
<polyline fill="none" stroke="black" points="465.874,-308.5 556.126,-308.5 "/>
<text text-anchor="middle" x="511" y="-293.3" font-family="Times,serif" font-size="14.00">id</text>
<polyline fill="none" stroke="black" points="465.874,-286.5 556.126,-286.5 "/>
<text text-anchor="middle" x="511" y="-271.3" font-family="Times,serif" font-size="14.00">Name</text>
<polyline fill="none" stroke="black" points="465.874,-264.5 556.126,-264.5 "/>
<text text-anchor="middle" x="511" y="-249.3" font-family="Times,serif" font-size="14.00">Description</text>
<polyline fill="none" stroke="black" points="465.874,-242.5 556.126,-242.5 "/>
<text text-anchor="middle" x="511" y="-227.3" font-family="Times,serif" font-size="14.00">Air date/time</text>
<polyline fill="none" stroke="black" points="465.874,-220.5 556.126,-220.5 "/>
<text text-anchor="middle" x="511" y="-205.3" font-family="Times,serif" font-size="14.00">Show</text>
<polyline fill="none" stroke="black" points="465.874,-198.5 556.126,-198.5 "/>
<text text-anchor="middle" x="511" y="-183.3" font-family="Times,serif" font-size="14.00">Season</text>
<polyline fill="none" stroke="black" points="465.874,-176.5 556.126,-176.5 "/>
<text text-anchor="middle" x="511" y="-161.3" font-family="Times,serif" font-size="14.00">Number</text>
<polyline fill="none" stroke="black" points="465.874,-154.5 556.126,-154.5 "/>
<text text-anchor="middle" x="511" y="-139.3" font-family="Times,serif" font-size="14.00">Created at</text>
<polyline fill="none" stroke="black" points="465.874,-132.5 556.126,-132.5 "/>
<text text-anchor="middle" x="511" y="-117.3" font-family="Times,serif" font-size="14.00">Updated at</text>
</g>
<!-- Episode&#45;&gt;Show -->
<g id="edge1" class="edge"><title>Episode:show_id&#45;&gt;Show:id</title>
<path fill="none" stroke="black" d="M465.874,-209.5C350.307,-209.5 318.876,-209.5 208.238,-209.5"/>
<polygon fill="black" stroke="black" points="208,-206 198,-209.5 208,-213 208,-206"/>
</g>
<!-- Vote -->
<g id="node4" class="node"><title>Vote</title>
<polygon fill="none" stroke="black" points="782.484,-282.5 782.484,-436.5 859.516,-436.5 859.516,-282.5 782.484,-282.5"/>
<text text-anchor="middle" x="821" y="-421.3" font-family="Times,serif" font-size="14.00">VOTE</text>
<polyline fill="none" stroke="black" points="782.484,-414.5 859.516,-414.5 "/>
<text text-anchor="middle" x="821" y="-399.3" font-family="Times,serif" font-size="14.00">Rating</text>
<polyline fill="none" stroke="black" points="782.484,-392.5 859.516,-392.5 "/>
<text text-anchor="middle" x="821" y="-377.3" font-family="Times,serif" font-size="14.00">User</text>
<polyline fill="none" stroke="black" points="782.484,-370.5 859.516,-370.5 "/>
<text text-anchor="middle" x="821" y="-355.3" font-family="Times,serif" font-size="14.00">Show</text>
<polyline fill="none" stroke="black" points="782.484,-348.5 859.516,-348.5 "/>
<text text-anchor="middle" x="821" y="-333.3" font-family="Times,serif" font-size="14.00">Episode</text>
<polyline fill="none" stroke="black" points="782.484,-326.5 859.516,-326.5 "/>
<text text-anchor="middle" x="821" y="-311.3" font-family="Times,serif" font-size="14.00">Created at</text>
<polyline fill="none" stroke="black" points="782.484,-304.5 859.516,-304.5 "/>
<text text-anchor="middle" x="821" y="-289.3" font-family="Times,serif" font-size="14.00">Updated at</text>
</g>
<!-- Vote&#45;&gt;User -->
<g id="edge2" class="edge"><title>Vote:user_id&#45;&gt;User:id</title>
<path fill="none" stroke="black" d="M782.484,-381.5C529.735,-381.5 465.762,-425.321 217.99,-426.477"/>
<polygon fill="black" stroke="black" points="217.952,-422.977 207.96,-426.5 217.969,-429.977 217.952,-422.977"/>
</g>
<!-- Vote&#45;&gt;Show -->
<g id="edge3" class="edge"><title>Vote:show_id&#45;&gt;Show:id</title>
<path fill="none" stroke="black" d="M782.484,-359.5C641.516,-359.5 602.199,-376.384 465.874,-340.5 341.09,-307.653 330.992,-214.585 208.226,-209.7"/>
<polygon fill="black" stroke="black" points="208.067,-206.196 198,-209.5 207.93,-213.195 208.067,-206.196"/>
</g>
<!-- Vote&#45;&gt;Episode -->
<g id="edge4" class="edge"><title>Vote:episode_id&#45;&gt;Episode:id</title>
<path fill="none" stroke="black" d="M782.484,-337.5C683.814,-337.5 659.888,-300.188 566.327,-297.637"/>
<polygon fill="black" stroke="black" points="566.172,-294.135 556.126,-297.5 566.078,-301.134 566.172,-294.135"/>
</g>
</g>
</svg>
