<?xml version="1.0" encoding="UTF-8" standalone="no"?>
<!DOCTYPE svg PUBLIC "-//W3C//DTD SVG 1.1//EN"
 "http://www.w3.org/Graphics/SVG/1.1/DTD/svg11.dtd">
<!-- Generated by graphviz version 2.38.0 (20140413.2041)
 -->
<!-- Title: EpisodeFever Database Schema Pages: 1 -->
<svg width="281pt" height="479pt"
 viewBox="0.00 0.00 281.45 479.00" xmlns="http://www.w3.org/2000/svg" xmlns:xlink="http://www.w3.org/1999/xlink">
<g id="graph0" class="graph" transform="scale(1 1) rotate(0) translate(4 475)">
<title>EpisodeFever Database Schema</title>
<polygon fill="white" stroke="none" points="-4,4 -4,-475 277.449,-475 277.449,4 -4,4"/>
<!-- User -->
<g id="node1" class="node"><title>User</title>
<polygon fill="none" stroke="black" points="0,-125.5 0,-323.5 119.359,-323.5 119.359,-125.5 0,-125.5"/>
<text text-anchor="middle" x="59.6797" y="-308.3" font-family="Times,serif" font-size="14.00">USER</text>
<polyline fill="none" stroke="black" points="0,-301.5 119.359,-301.5 "/>
<text text-anchor="middle" x="59.6797" y="-286.3" font-family="Times,serif" font-size="14.00">id</text>
<polyline fill="none" stroke="black" points="0,-279.5 119.359,-279.5 "/>
<text text-anchor="middle" x="59.6797" y="-264.3" font-family="Times,serif" font-size="14.00">Name</text>
<polyline fill="none" stroke="black" points="0,-257.5 119.359,-257.5 "/>
<text text-anchor="middle" x="59.6797" y="-242.3" font-family="Times,serif" font-size="14.00">EMail</text>
<polyline fill="none" stroke="black" points="0,-235.5 119.359,-235.5 "/>
<text text-anchor="middle" x="59.6797" y="-220.3" font-family="Times,serif" font-size="14.00">Password</text>
<polyline fill="none" stroke="black" points="0,-213.5 119.359,-213.5 "/>
<text text-anchor="middle" x="59.6797" y="-198.3" font-family="Times,serif" font-size="14.00">Verified</text>
<polyline fill="none" stroke="black" points="0,-191.5 119.359,-191.5 "/>
<text text-anchor="middle" x="59.6797" y="-176.3" font-family="Times,serif" font-size="14.00">Verification Token</text>
<polyline fill="none" stroke="black" points="0,-169.5 119.359,-169.5 "/>
<text text-anchor="middle" x="59.6797" y="-154.3" font-family="Times,serif" font-size="14.00">Created At</text>
<polyline fill="none" stroke="black" points="0,-147.5 119.359,-147.5 "/>
<text text-anchor="middle" x="59.6797" y="-132.3" font-family="Times,serif" font-size="14.00">Updated At</text>
</g>
<!-- Show -->
<g id="node2" class="node"><title>Show</title>
<polygon fill="none" stroke="black" points="145.021,-0.5 145.021,-88.5 226.338,-88.5 226.338,-0.5 145.021,-0.5"/>
<text text-anchor="middle" x="185.68" y="-73.3" font-family="Times,serif" font-size="14.00">SHOW</text>
<polyline fill="none" stroke="black" points="145.021,-66.5 226.338,-66.5 "/>
<text text-anchor="middle" x="185.68" y="-51.3" font-family="Times,serif" font-size="14.00">id</text>
<polyline fill="none" stroke="black" points="145.021,-44.5 226.338,-44.5 "/>
<text text-anchor="middle" x="185.68" y="-29.3" font-family="Times,serif" font-size="14.00">Name</text>
<polyline fill="none" stroke="black" points="145.021,-22.5 226.338,-22.5 "/>
<text text-anchor="middle" x="185.68" y="-7.3" font-family="Times,serif" font-size="14.00">Description</text>
</g>
<!-- Episode -->
<g id="node3" class="node"><title>Episode</title>
<polygon fill="none" stroke="black" points="175.91,-136.5 175.91,-312.5 273.449,-312.5 273.449,-136.5 175.91,-136.5"/>
<text text-anchor="middle" x="224.68" y="-297.3" font-family="Times,serif" font-size="14.00">EPISODE</text>
<polyline fill="none" stroke="black" points="175.91,-290.5 273.449,-290.5 "/>
<text text-anchor="middle" x="224.68" y="-275.3" font-family="Times,serif" font-size="14.00">id</text>
<polyline fill="none" stroke="black" points="175.91,-268.5 273.449,-268.5 "/>
<text text-anchor="middle" x="224.68" y="-253.3" font-family="Times,serif" font-size="14.00">Name</text>
<polyline fill="none" stroke="black" points="175.91,-246.5 273.449,-246.5 "/>
<text text-anchor="middle" x="224.68" y="-231.3" font-family="Times,serif" font-size="14.00">Description</text>
<polyline fill="none" stroke="black" points="175.91,-224.5 273.449,-224.5 "/>
<text text-anchor="middle" x="224.68" y="-209.3" font-family="Times,serif" font-size="14.00">Air Date/Time</text>
<polyline fill="none" stroke="black" points="175.91,-202.5 273.449,-202.5 "/>
<text text-anchor="middle" x="224.68" y="-187.3" font-family="Times,serif" font-size="14.00">Show</text>
<polyline fill="none" stroke="black" points="175.91,-180.5 273.449,-180.5 "/>
<text text-anchor="middle" x="224.68" y="-165.3" font-family="Times,serif" font-size="14.00">Season</text>
<polyline fill="none" stroke="black" points="175.91,-158.5 273.449,-158.5 "/>
<text text-anchor="middle" x="224.68" y="-143.3" font-family="Times,serif" font-size="14.00">Number</text>
</g>
<!-- Episode&#45;&gt;Show -->
<g id="edge1" class="edge"><title>Episode:show_id&#45;&gt;Show:id</title>
<path fill="none" stroke="black" d="M174.68,-191.5C162.344,-191.5 170.626,-147.253 175.68,-136 188.308,-107.881 213.886,-117.043 226.68,-89 230.689,-80.2125 236.182,-68.7355 235.488,-61.7518"/>
<polygon fill="black" stroke="black" points="237.673,-59.018 227.68,-55.5 233.298,-64.4823 237.673,-59.018"/>
</g>
<!-- Vote -->
<g id="node4" class="node"><title>Vote</title>
<polygon fill="none" stroke="black" points="117.128,-360.5 117.128,-470.5 178.231,-470.5 178.231,-360.5 117.128,-360.5"/>
<text text-anchor="middle" x="147.68" y="-455.3" font-family="Times,serif" font-size="14.00">VOTE</text>
<polyline fill="none" stroke="black" points="117.128,-448.5 178.231,-448.5 "/>
<text text-anchor="middle" x="147.68" y="-433.3" font-family="Times,serif" font-size="14.00">Rating</text>
<polyline fill="none" stroke="black" points="117.128,-426.5 178.231,-426.5 "/>
<text text-anchor="middle" x="147.68" y="-411.3" font-family="Times,serif" font-size="14.00">User</text>
<polyline fill="none" stroke="black" points="117.128,-404.5 178.231,-404.5 "/>
<text text-anchor="middle" x="147.68" y="-389.3" font-family="Times,serif" font-size="14.00">Show</text>
<polyline fill="none" stroke="black" points="117.128,-382.5 178.231,-382.5 "/>
<text text-anchor="middle" x="147.68" y="-367.3" font-family="Times,serif" font-size="14.00">Episode</text>
</g>
<!-- Vote&#45;&gt;User -->
<g id="edge2" class="edge"><title>Vote:user_id&#45;&gt;User:id</title>
<path fill="none" stroke="black" d="M115.68,-415.5C92.0063,-415.5 132.437,-324.855 127.794,-297.945"/>
<polygon fill="black" stroke="black" points="130.119,-295.312 120.68,-290.5 125.058,-300.148 130.119,-295.312"/>
</g>
<!-- Vote&#45;&gt;Show -->
<g id="edge3" class="edge"><title>Vote:show_id&#45;&gt;Show:id</title>
<path fill="none" stroke="black" d="M179.68,-393.5C197.535,-393.5 168.265,-331.53 166.68,-324 161.148,-297.733 122.985,-102.773 136.717,-62.6913"/>
<polygon fill="black" stroke="black" points="139.238,-65.119 143.68,-55.5 134.209,-60.2498 139.238,-65.119"/>
</g>
<!-- Vote&#45;&gt;Episode -->
<g id="edge4" class="edge"><title>Vote:episode_id&#45;&gt;Episode:id</title>
<path fill="none" stroke="black" d="M179.68,-371.5C215.83,-371.5 152.342,-299.799 165.139,-282.994"/>
<polygon fill="black" stroke="black" points="166.493,-286.226 174.68,-279.5 164.086,-279.653 166.493,-286.226"/>
</g>
</g>
</svg>
