<?xml version="1.0" encoding="UTF-8" standalone="no"?>
<!DOCTYPE svg PUBLIC "-//W3C//DTD SVG 1.1//EN"
 "http://www.w3.org/Graphics/SVG/1.1/DTD/svg11.dtd">
<!-- Generated by graphviz version 2.38.0 (20140413.2041)
 -->
<!-- Title: TheTVDB API Request Cycle Pages: 1 -->
<svg width="666pt" height="639pt"
 viewBox="0.00 0.00 666.00 639.10" xmlns="http://www.w3.org/2000/svg" xmlns:xlink="http://www.w3.org/1999/xlink">
<g id="graph0" class="graph" transform="scale(1 1) rotate(0) translate(4 635.104)">
<title>TheTVDB API Request Cycle</title>
<polygon fill="white" stroke="none" points="-4,4 -4,-635.104 662,-635.104 662,4 -4,4"/>
<g id="clust1" class="cluster"><title>clusterSearchTvDb</title>
<polygon fill="none" stroke="black" points="322,-176.104 322,-482.104 650,-482.104 650,-176.104 322,-176.104"/>
<text text-anchor="middle" x="486" y="-466.904" font-family="Times,serif" font-size="14.00">TheTVDB</text>
</g>
<g id="clust2" class="cluster"><title>clusterSearchTvRage</title>
<polygon fill="none" stroke="black" points="8,-176.104 8,-482.104 314,-482.104 314,-176.104 8,-176.104"/>
<text text-anchor="middle" x="161" y="-466.904" font-family="Times,serif" font-size="14.00">TVRage</text>
</g>
<!-- Start -->
<g id="node1" class="node"><title>Start</title>
<polygon fill="none" stroke="black" points="381,-631.104 343.172,-613.104 381,-595.104 418.828,-613.104 381,-631.104"/>
<polyline fill="none" stroke="black" points="354.008,-618.26 354.008,-607.947 "/>
<polyline fill="none" stroke="black" points="370.164,-600.26 391.836,-600.26 "/>
<polyline fill="none" stroke="black" points="407.992,-607.947 407.992,-618.26 "/>
<polyline fill="none" stroke="black" points="391.836,-625.947 370.164,-625.947 "/>
<text text-anchor="middle" x="381" y="-608.904" font-family="Times,serif" font-size="14.00">Start</text>
</g>
<!-- Search -->
<g id="node12" class="node"><title>Search</title>
<ellipse fill="none" stroke="black" cx="381" cy="-527.104" rx="34.3354" ry="18"/>
<text text-anchor="middle" x="381" y="-522.904" font-family="Times,serif" font-size="14.00">Search</text>
</g>
<!-- Start&#45;&gt;Search -->
<g id="edge7" class="edge"><title>Start&#45;&gt;Search</title>
<path fill="none" stroke="black" d="M381,-594.699C381,-583.361 381,-568.331 381,-555.419"/>
<polygon fill="black" stroke="black" points="384.5,-555.199 381,-545.199 377.5,-555.199 384.5,-555.199"/>
<text text-anchor="middle" x="447.435" y="-565.904" font-family="Times,serif" font-size="14.00">Query: TV Show Name</text>
</g>
<!-- Reject -->
<g id="node2" class="node"><title>Reject</title>
<polygon fill="none" stroke="black" points="281.759,-56.3111 230.241,-56.3111 230.241,-4.79241 281.759,-4.79241 281.759,-56.3111"/>
<polyline fill="none" stroke="black" points="242.241,-56.3111 230.241,-44.3111 "/>
<polyline fill="none" stroke="black" points="230.241,-16.7924 242.241,-4.79241 "/>
<polyline fill="none" stroke="black" points="269.759,-4.79241 281.759,-16.7924 "/>
<polyline fill="none" stroke="black" points="281.759,-44.3111 269.759,-56.3111 "/>
<text text-anchor="middle" x="256" y="-26.3518" font-family="Times,serif" font-size="14.00">Reject</text>
</g>
<!-- Resolve -->
<g id="node3" class="node"><title>Resolve</title>
<polygon fill="none" stroke="black" points="172.604,-61.1554 111.396,-61.1554 111.396,0.0518456 172.604,0.0518456 172.604,-61.1554"/>
<polyline fill="none" stroke="black" points="123.396,-61.1554 111.396,-49.1554 "/>
<polyline fill="none" stroke="black" points="111.396,-11.9482 123.396,0.0518456 "/>
<polyline fill="none" stroke="black" points="160.604,0.0518456 172.604,-11.9482 "/>
<polyline fill="none" stroke="black" points="172.604,-49.1554 160.604,-61.1554 "/>
<text text-anchor="middle" x="142" y="-26.3518" font-family="Times,serif" font-size="14.00">Resolve</text>
</g>
<!-- tvdb_search -->
<g id="node4" class="node"><title>tvdb_search</title>
<ellipse fill="none" stroke="black" cx="452" cy="-434.104" rx="87.9243" ry="18"/>
<text text-anchor="middle" x="452" y="-429.904" font-family="Times,serif" font-size="14.00">Seach by Show Name</text>
</g>
<!-- tvdb_results -->
<g id="node5" class="node"><title>tvdb_results</title>
<polygon fill="none" stroke="black" points="486,-379.104 330.001,-361.104 486,-343.104 641.999,-361.104 486,-379.104"/>
<text text-anchor="middle" x="486" y="-356.904" font-family="Times,serif" font-size="14.00">TheTVDB Search Response</text>
</g>
<!-- tvdb_search&#45;&gt;tvdb_results -->
<g id="edge1" class="edge"><title>tvdb_search&#45;&gt;tvdb_results</title>
<path fill="none" stroke="black" d="M460.23,-415.916C464.256,-407.51 469.186,-397.216 473.651,-387.891"/>
<polygon fill="black" stroke="black" points="476.917,-389.174 478.079,-378.643 470.604,-386.151 476.917,-389.174"/>
</g>
<!-- tvdb_results&#45;&gt;Reject -->
<g id="edge10" class="edge"><title>tvdb_results&#45;&gt;Reject</title>
<path fill="none" stroke="black" d="M520.642,-347.032C531.028,-341.633 541.609,-334.413 549,-325.104 563.083,-307.365 563,-298.753 563,-276.104 563,-276.104 563,-276.104 563,-128.104 563,-71.8915 373.337,-44.3955 292.161,-35.2015"/>
<polygon fill="black" stroke="black" points="292.233,-31.6884 281.91,-34.0729 291.467,-38.6463 292.233,-31.6884"/>
<text text-anchor="middle" x="591.581" y="-197.904" font-family="Times,serif" font-size="14.00">No results</text>
</g>
<!-- tvdb_result -->
<g id="node6" class="node"><title>tvdb_result</title>
<ellipse fill="none" stroke="black" cx="437" cy="-275.104" rx="81.6612" ry="18"/>
<text text-anchor="middle" x="437" y="-270.904" font-family="Times,serif" font-size="14.00">TheTVDB Show ID</text>
</g>
<!-- tvdb_results&#45;&gt;tvdb_result -->
<g id="edge2" class="edge"><title>tvdb_results&#45;&gt;tvdb_result</title>
<path fill="none" stroke="black" d="M467.708,-345.203C461.657,-339.47 455.364,-332.509 451.007,-325.104 447.058,-318.393 444.169,-310.506 442.078,-303.044"/>
<polygon fill="black" stroke="black" points="445.467,-302.168 439.696,-293.283 438.666,-303.828 445.467,-302.168"/>
<text text-anchor="middle" x="500.997" y="-313.904" font-family="Times,serif" font-size="14.00">Return first result</text>
</g>
<!-- tvdb_show -->
<g id="node7" class="node"><title>tvdb_show</title>
<ellipse fill="none" stroke="black" cx="429" cy="-202.104" rx="98.0725" ry="18"/>
<text text-anchor="middle" x="429" y="-197.904" font-family="Times,serif" font-size="14.00">TheTVDB Show Record</text>
</g>
<!-- tvdb_result&#45;&gt;tvdb_show -->
<g id="edge3" class="edge"><title>tvdb_result&#45;&gt;tvdb_show</title>
<path fill="none" stroke="black" d="M435.063,-256.916C434.159,-248.893 433.062,-239.151 432.05,-230.173"/>
<polygon fill="black" stroke="black" points="435.516,-229.678 430.919,-220.132 428.561,-230.461 435.516,-229.678"/>
</g>
<!-- Process Show -->
<g id="node13" class="node"><title>Process Show</title>
<ellipse fill="none" stroke="black" cx="155" cy="-129.104" rx="59.4686" ry="18"/>
<text text-anchor="middle" x="155" y="-124.904" font-family="Times,serif" font-size="14.00">Process Show</text>
</g>
<!-- tvdb_show&#45;&gt;Process Show -->
<g id="edge12" class="edge"><title>tvdb_show&#45;&gt;Process Show</title>
<path fill="none" stroke="black" d="M374.866,-187.076C326.671,-174.588 256.561,-156.42 208.545,-143.978"/>
<polygon fill="black" stroke="black" points="209.209,-140.535 198.65,-141.414 207.453,-147.311 209.209,-140.535"/>
</g>
<!-- tvrage_search -->
<g id="node8" class="node"><title>tvrage_search</title>
<ellipse fill="none" stroke="black" cx="203" cy="-434.104" rx="87.9243" ry="18"/>
<text text-anchor="middle" x="203" y="-429.904" font-family="Times,serif" font-size="14.00">Seach by Show Name</text>
</g>
<!-- tvrage_results -->
<g id="node9" class="node"><title>tvrage_results</title>
<polygon fill="none" stroke="black" points="161,-379.104 16.2416,-361.104 161,-343.104 305.758,-361.104 161,-379.104"/>
<text text-anchor="middle" x="161" y="-356.904" font-family="Times,serif" font-size="14.00">TVRage Search Response</text>
</g>
<!-- tvrage_search&#45;&gt;tvrage_results -->
<g id="edge4" class="edge"><title>tvrage_search&#45;&gt;tvrage_results</title>
<path fill="none" stroke="black" d="M192.833,-415.916C187.682,-407.208 181.333,-396.475 175.663,-386.892"/>
<polygon fill="black" stroke="black" points="178.601,-384.984 170.498,-378.159 172.577,-388.548 178.601,-384.984"/>
</g>
<!-- tvrage_results&#45;&gt;Reject -->
<g id="edge11" class="edge"><title>tvrage_results&#45;&gt;Reject</title>
<path fill="none" stroke="black" d="M206.264,-348.625C219.339,-343.355 232.599,-335.809 242,-325.104 256.945,-308.085 256,-298.753 256,-276.104 256,-276.104 256,-276.104 256,-128.104 256,-107.786 256,-85.0626 256,-66.767"/>
<polygon fill="black" stroke="black" points="259.5,-66.5581 256,-56.5581 252.5,-66.5582 259.5,-66.5581"/>
<text text-anchor="middle" x="284.581" y="-197.904" font-family="Times,serif" font-size="14.00">No results</text>
</g>
<!-- tvrage_result -->
<g id="node10" class="node"><title>tvrage_result</title>
<ellipse fill="none" stroke="black" cx="135" cy="-275.104" rx="73.9344" ry="18"/>
<text text-anchor="middle" x="135" y="-270.904" font-family="Times,serif" font-size="14.00">TVRage Show ID</text>
</g>
<!-- tvrage_results&#45;&gt;tvrage_result -->
<g id="edge5" class="edge"><title>tvrage_results&#45;&gt;tvrage_result</title>
<path fill="none" stroke="black" d="M152.105,-344.103C149.165,-338.267 146.112,-331.522 144.007,-325.104 141.725,-318.146 139.968,-310.431 138.637,-303.222"/>
<polygon fill="black" stroke="black" points="142.06,-302.465 136.982,-293.166 135.153,-303.602 142.06,-302.465"/>
<text text-anchor="middle" x="193.997" y="-313.904" font-family="Times,serif" font-size="14.00">Return first result</text>
</g>
<!-- tvrage_show -->
<g id="node11" class="node"><title>tvrage_show</title>
<ellipse fill="none" stroke="black" cx="130" cy="-202.104" rx="90.3463" ry="18"/>
<text text-anchor="middle" x="130" y="-197.904" font-family="Times,serif" font-size="14.00">TVRage Show Record</text>
</g>
<!-- tvrage_result&#45;&gt;tvrage_show -->
<g id="edge6" class="edge"><title>tvrage_result&#45;&gt;tvrage_show</title>
<path fill="none" stroke="black" d="M133.79,-256.916C133.225,-248.893 132.539,-239.151 131.906,-230.173"/>
<polygon fill="black" stroke="black" points="135.393,-229.862 131.199,-220.132 128.41,-230.354 135.393,-229.862"/>
</g>
<!-- tvrage_show&#45;&gt;Process Show -->
<g id="edge13" class="edge"><title>tvrage_show&#45;&gt;Process Show</title>
<path fill="none" stroke="black" d="M136.052,-183.916C138.938,-175.719 142.457,-165.727 145.674,-156.588"/>
<polygon fill="black" stroke="black" points="148.984,-157.727 149.004,-147.132 142.381,-155.402 148.984,-157.727"/>
</g>
<!-- Search&#45;&gt;tvdb_search -->
<g id="edge8" class="edge"><title>Search&#45;&gt;tvdb_search</title>
<path fill="none" stroke="black" d="M393.367,-510.253C404.194,-496.376 420.105,-475.984 432.621,-459.941"/>
<polygon fill="black" stroke="black" points="435.42,-462.044 438.812,-452.007 429.901,-457.738 435.42,-462.044"/>
</g>
<!-- Search&#45;&gt;tvrage_search -->
<g id="edge9" class="edge"><title>Search&#45;&gt;tvrage_search</title>
<path fill="none" stroke="black" d="M357.363,-514.019C328.281,-499.152 278.447,-473.675 243.281,-455.697"/>
<polygon fill="black" stroke="black" points="244.728,-452.505 234.23,-451.07 241.541,-458.738 244.728,-452.505"/>
</g>
<!-- Process Show&#45;&gt;Reject -->
<g id="edge15" class="edge"><title>Process Show&#45;&gt;Reject</title>
<path fill="none" stroke="black" d="M159.298,-110.747C162.479,-100.637 167.649,-88.1423 175.527,-79.1035 187.801,-65.0219 205.307,-53.9897 220.859,-46.1116"/>
<polygon fill="black" stroke="black" points="222.725,-49.0982 230.225,-41.6149 219.695,-42.7878 222.725,-49.0982"/>
<text text-anchor="middle" x="209.236" y="-81.9035" font-family="Times,serif" font-size="14.00">Invalid data</text>
</g>
<!-- Process Show&#45;&gt;Resolve -->
<g id="edge14" class="edge"><title>Process Show&#45;&gt;Resolve</title>
<path fill="none" stroke="black" d="M152.676,-110.842C151.198,-99.8632 149.22,-85.1731 147.368,-71.4219"/>
<polygon fill="black" stroke="black" points="150.791,-70.6099 145.987,-61.1663 143.853,-71.544 150.791,-70.6099"/>
</g>
</g>
</svg>
